<svg width="1024" height="1024" viewBox="0 0 1024 1024" fill="none" xmlns="http://www.w3.org/2000/svg">
<path d="M649.631 338C691.333 338 725 372.014 725 413.801V556.355C725 598.142 691.333 632.156 649.631 632.156H540.914C523.374 632.156 506.063 636.134 490.282 643.79L376.089 699.189C369.375 702.447 361.535 702.432 354.833 699.148C340.79 692.269 336.832 674.092 346.744 661.997L371.233 632.112C371.152 632.099 371.043 632.084 370.904 632.078C330.811 630.249 299 596.979 299 556.355V413.801C299 372.014 332.667 338 374.369 338H649.631Z" fill="#A09EFF" stroke="#5957D8" stroke-width="24"/>
</svg>
